# xmcd CD database file
#
# Track frame offsets:
#	150
#	11707
#	23018
#	36211
#	47918
#	59127
#	68874
#	80271
#	93007
#	106180
#	121862
#	133675
#	147713
#	157940
#
# Disc length: 2217 seconds
#
# Revision: 1
# Processed by: cddbd v1.5.2PL0 Copyright (c) Steve Scherf et al.
# Submitted via: CDex 1.50Beta7
#
DISCID=b908a70e
DTITLE=Johnny Shines - Evening Shuffle - The Complete J.O.B Recordings, 1952-53
DYEAR=2001
DGENRE=Blues
TTITLE0=Ramblin'
TTITLE1=Fish Tail
TTITLE2=Cool Driver
TTITLE3=Ain't Doin' No Good
TTITLE4=Livin' In The White House
TTITLE5=Please Don't (Take 2)
TTITLE6=Evening Sun (Take 3 - Master)
TTITLE7=No Name Blues
TTITLE8=Brutal Hearted Woman
TTITLE9=Gonna Call The Angel (Take 1 - Master)
TTITLE10=Evening Shuffle (Take 1)
TTITLE11=Gonna Call The Angel (Rehearsal)
TTITLE12=Evening Shuffle (Take 2)
TTITLE13=Please Don't (Take 1)
EXTD=YEAR: 2001
EXTT0=
EXTT1=
EXTT2=
EXTT3=
EXTT4=
EXTT5=
EXTT6=
EXTT7=
EXTT8=
EXTT9=
EXTT10=
EXTT11=
EXTT12=
EXTT13=
PLAYORDER=
